<svg width="200" height="200" viewBox="0 0 200 200" fill="none" xmlns="http://www.w3.org/2000/svg">
<path d="M169.737 0H49.8672C48.1842 0 46.8201 1.36414 46.8201 3.04871C46.8201 4.73175 48.1842 6.09741 49.8672 6.09741H169.737C174.855 6.09741 179.018 10.26 179.018 15.3778V160.805C179.018 162.488 180.382 163.853 182.066 163.853C183.749 163.853 185.115 162.488 185.115 160.805V15.3778C185.114 6.8985 178.217 0 169.737 0Z" fill="#CDCDCD"/>
<path d="M182.066 170.56C180.382 170.56 179.018 171.924 179.018 173.608V184.624C179.018 189.74 174.855 193.904 169.737 193.904H31.0013C25.885 193.904 21.7209 189.74 21.7209 184.624V15.3778C21.7209 10.26 25.885 6.09741 31.0013 6.09741H36.7599C38.443 6.09741 39.8087 4.73175 39.8087 3.04871C39.8087 1.36414 38.443 0 36.7599 0H31.0013C22.5235 0 15.625 6.8985 15.625 15.3778V184.624C15.625 193.102 22.5235 200 31.0013 200H169.737C178.217 200 185.114 193.102 185.114 184.624V173.608C185.114 171.924 183.749 170.56 182.066 170.56Z" fill="#CDCDCD"/>
<path d="M58.0521 19.6732C45.2957 19.6732 34.9167 30.0522 34.9167 42.8085C34.9167 55.5664 45.2957 65.9454 58.0521 65.9454C70.8099 65.9454 81.189 55.5664 81.189 42.8085C81.189 30.0522 70.8099 19.6732 58.0521 19.6732ZM58.0521 59.848C48.6572 59.848 41.0126 52.2049 41.0126 42.8101C41.0126 33.4137 48.6572 25.7706 58.0521 25.7706C67.4469 25.7706 75.0916 33.4137 75.0916 42.8101C75.0916 52.2049 67.4469 59.848 58.0521 59.848Z" fill="#CDCDCD"/>
<path d="M95.401 31.456H161.85C163.533 31.456 164.899 30.0903 164.899 28.4073C164.899 26.7227 163.533 25.3586 161.85 25.3586H95.401C93.718 25.3586 92.3538 26.7227 92.3538 28.4073C92.3538 30.0903 93.718 31.456 95.401 31.456Z" fill="#CDCDCD"/>
<path d="M95.401 45.8572H143.5C145.184 45.8572 146.548 44.4931 146.548 42.8085C146.548 41.1255 145.184 39.7598 143.5 39.7598H95.401C93.718 39.7598 92.3538 41.1255 92.3538 42.8085C92.3538 44.4931 93.718 45.8572 95.401 45.8572Z" fill="#7DC900"/>
<path d="M95.401 60.26H153.404C155.087 60.26 156.451 58.8943 156.451 57.2113C156.451 55.5267 155.087 54.1626 153.404 54.1626H95.401C93.718 54.1626 92.3538 55.5267 92.3538 57.2113C92.3538 58.8943 93.718 60.26 95.401 60.26Z" fill="#CDCDCD"/>
<path d="M95.401 88.6932H161.85C163.533 88.6932 164.899 87.3276 164.899 85.6445C164.899 83.96 163.533 82.5958 161.85 82.5958H95.401C93.718 82.5958 92.3538 83.96 92.3538 85.6445C92.3538 87.3276 93.718 88.6932 95.401 88.6932Z" fill="#7DC900"/>
<path d="M95.401 103.094H143.5C145.184 103.094 146.548 101.73 146.548 100.046C146.548 98.3627 145.184 96.9971 143.5 96.9971H95.401C93.718 96.9971 92.3538 98.3627 92.3538 100.046C92.3538 101.73 93.718 103.094 95.401 103.094Z" fill="#7DC900"/>
<path d="M95.401 117.497H153.404C155.087 117.497 156.451 116.132 156.451 114.449C156.451 112.766 155.087 111.4 153.404 111.4H95.401C93.718 111.4 92.3538 112.766 92.3538 114.449C92.3538 116.132 93.718 117.497 95.401 117.497Z" fill="#7DC900"/>
<path d="M58.0521 134.148C45.2957 134.148 34.9167 144.527 34.9167 157.283C34.9167 170.041 45.2957 180.42 58.0521 180.42C70.8099 180.42 81.189 170.041 81.189 157.283C81.189 144.527 70.8099 134.148 58.0521 134.148ZM58.0521 174.323C48.6572 174.323 41.0126 166.679 41.0126 157.283C41.0126 147.888 48.6572 140.245 58.0521 140.245C67.4469 140.245 75.0916 147.888 75.0916 157.283C75.0916 166.679 67.4469 174.323 58.0521 174.323Z" fill="#CDCDCD"/>
<path d="M95.401 145.93H161.85C163.533 145.93 164.899 144.565 164.899 142.882C164.899 141.199 163.533 139.833 161.85 139.833H95.401C93.718 139.833 92.3538 141.199 92.3538 142.882C92.3538 144.565 93.718 145.93 95.401 145.93Z" fill="#CDCDCD"/>
<path d="M95.401 160.332H143.5C145.184 160.332 146.548 158.968 146.548 157.283C146.548 155.6 145.184 154.236 143.5 154.236H95.401C93.718 154.236 92.3538 155.6 92.3538 157.283C92.3538 158.968 93.718 160.332 95.401 160.332Z" fill="#7DC900"/>
<path d="M95.401 174.734H153.404C155.087 174.734 156.451 173.369 156.451 171.686C156.451 170.001 155.087 168.637 153.404 168.637H95.401C93.718 168.637 92.3538 170.001 92.3538 171.686C92.3538 173.369 93.718 174.734 95.401 174.734Z" fill="#CDCDCD"/>
<path d="M53.8528 95.3445C52.6627 94.1544 50.7309 94.1544 49.5407 95.3445C48.3505 96.5347 48.3505 98.465 49.5407 99.6552L57.0602 107.175C57.6569 107.77 58.4366 108.067 59.2163 108.067C59.996 108.067 60.7773 107.77 61.3724 107.175L77.1011 91.4459C77.1164 91.4307 77.1301 91.4154 77.1454 91.4017L87.5885 80.9586C88.7787 79.7684 88.7787 77.8381 87.5885 76.6479C86.3983 75.4578 84.4666 75.4578 83.2764 76.6479L75.3021 84.6237C70.9488 79.7394 64.7278 76.9104 58.0521 76.9104C45.2957 76.9104 34.9167 87.2894 34.9167 100.047C34.9167 112.804 45.2957 123.183 58.0521 123.183C70.8099 123.183 81.189 112.804 81.189 100.047C81.189 98.3627 79.8233 96.9986 78.1403 96.9986C76.4557 96.9986 75.0916 98.3627 75.0916 100.047C75.0916 109.442 67.4469 117.085 58.0521 117.085C48.6572 117.085 41.0126 109.442 41.0126 100.047C41.0126 90.6509 48.6572 83.0078 58.0521 83.0078C63.0844 83.0078 67.7612 85.1944 70.9763 88.9481L59.2163 100.71L53.8528 95.3445Z" fill="#7DC900"/>
</svg>
