<svg width="188" height="188" viewBox="0 0 188 188" fill="none" xmlns="http://www.w3.org/2000/svg">
<path d="M178.375 0.25H90.875C88.3909 0.257419 86.0106 1.24752 84.2541 3.00407C82.4975 4.76062 81.5074 7.14088 81.5 9.625V55.0313C74.1517 49.1238 65.2828 45.4144 55.9168 44.3311C46.5507 43.2478 37.0693 44.8349 28.5665 48.909C20.0637 52.9832 12.8862 59.3784 7.86207 67.3568C2.83797 75.3352 0.172119 84.5715 0.172119 94C0.172119 103.428 2.83797 112.665 7.86207 120.643C12.8862 128.622 20.0637 135.017 28.5665 139.091C37.0693 143.165 46.5507 144.752 55.9168 143.669C65.2828 142.586 74.1517 138.876 81.5 132.969V178.375C81.5074 180.859 82.4975 183.239 84.2541 184.996C86.0106 186.752 88.3909 187.743 90.875 187.75H178.375C180.859 187.743 183.239 186.752 184.996 184.996C186.752 183.239 187.743 180.859 187.75 178.375V9.625C187.743 7.14088 186.752 4.76062 184.996 3.00407C183.239 1.24752 180.859 0.257419 178.375 0.25ZM165 6.5L163.438 12.75H105.813L104.25 6.5H165ZM50.25 137.75C41.5971 137.75 33.1385 135.184 25.9438 130.377C18.7492 125.569 13.1416 118.737 9.83028 110.742C6.51894 102.748 5.65255 93.9515 7.34065 85.4648C9.02875 76.9781 13.1955 69.1826 19.3141 63.0641C25.4326 56.9455 33.2281 52.7787 41.7148 51.0906C50.2015 49.4025 58.9981 50.2689 66.9924 53.5803C74.9867 56.8916 81.8195 62.4992 86.6268 69.6938C91.4341 76.8885 94 85.3471 94 94C93.9876 105.599 89.3743 116.72 81.1722 124.922C72.9702 133.124 61.8494 137.738 50.25 137.75ZM181.5 178.375C181.5 179.204 181.171 179.999 180.585 180.585C179.999 181.171 179.204 181.5 178.375 181.5H90.875C90.0462 181.5 89.2513 181.171 88.6653 180.585C88.0792 179.999 87.75 179.204 87.75 178.375V126.969C95.8035 117.875 100.25 106.147 100.25 94C100.25 81.8526 95.8035 70.1253 87.75 61.0313V9.625C87.75 8.7962 88.0792 8.00134 88.6653 7.41529C89.2513 6.82924 90.0462 6.5 90.875 6.5H97.8125L100.344 16.625C100.511 17.3025 100.901 17.9045 101.45 18.3349C101.999 18.7653 102.677 18.9995 103.375 19H165.875C166.573 18.9995 167.251 18.7653 167.8 18.3349C168.349 17.9045 168.739 17.3025 168.906 16.625L171.438 6.5H178.375C179.204 6.5 179.999 6.82924 180.585 7.41529C181.171 8.00134 181.5 8.7962 181.5 9.625V178.375Z" fill="#CDCDCD"/>
<path d="M9.61889 28.37L50.2439 28.37L50.2439 34.62C50.2429 35.2143 50.4115 35.7966 50.7297 36.2985C51.048 36.8004 51.5028 37.2012 52.0408 37.4538C52.5787 37.7064 53.1776 37.8003 53.7671 37.7246C54.3566 37.6489 54.9122 37.4066 55.3689 37.0262L74.1189 21.4012C74.4728 21.108 74.7576 20.7403 74.9531 20.3244C75.1486 19.9085 75.25 19.4546 75.25 18.995C75.25 18.5354 75.1486 18.0815 74.9531 17.6656C74.7576 17.2496 74.4728 16.882 74.1189 16.5887L55.3689 0.96372C54.8067 0.497843 54.0991 0.243544 53.3689 0.24497C52.9164 0.244783 52.4691 0.340647 52.0564 0.526224C51.514 0.777258 51.0549 1.17859 50.7336 1.68263C50.4124 2.18667 50.2424 2.77226 50.2439 3.36997L50.2439 9.61997L9.61889 9.61997C8.79009 9.61997 7.99523 9.94921 7.40918 10.5353C6.82313 11.1213 6.49389 11.9162 6.49389 12.745L6.49389 25.245C6.49389 26.0738 6.82313 26.8686 7.40918 27.4547C7.99523 28.0407 8.79009 28.37 9.61889 28.37ZM12.7439 15.87L53.3689 15.87C54.1977 15.87 54.9925 15.5407 55.5786 14.9547C56.1647 14.3686 56.4939 13.5738 56.4939 12.745L56.4939 10.0262L67.2439 18.995L56.4939 27.9637L56.4939 25.245C56.4939 24.4162 56.1646 23.6213 55.5786 23.0353C54.9925 22.4492 54.1977 22.12 53.3689 22.12L12.7439 22.12L12.7439 15.87Z" fill="#7DC900"/>
<path d="M74.125 166.594L55.375 150.969C54.9183 150.588 54.3627 150.346 53.7732 150.27C53.1837 150.195 52.5849 150.289 52.0469 150.541C51.5089 150.794 51.0541 151.194 50.7358 151.696C50.4176 152.198 50.249 152.781 50.25 153.375V159.625H9.625C8.7962 159.625 8.00134 159.954 7.41529 160.54C6.82924 161.126 6.5 161.921 6.5 162.75V175.25C6.5 176.079 6.82924 176.874 7.41529 177.46C8.00134 178.046 8.7962 178.375 9.625 178.375H50.25V184.625C50.2485 185.223 50.4185 185.808 50.7397 186.312C51.061 186.816 51.5201 187.218 52.0625 187.469C52.4752 187.654 52.9225 187.75 53.375 187.75C54.1052 187.751 54.8128 187.497 55.375 187.031L74.125 171.406C74.4789 171.113 74.7637 170.745 74.9592 170.329C75.1547 169.913 75.2561 169.46 75.2561 169C75.2561 168.54 75.1547 168.086 74.9592 167.671C74.7637 167.255 74.4789 166.887 74.125 166.594ZM56.5 177.969V175.25C56.5 174.421 56.1708 173.626 55.5847 173.04C54.9987 172.454 54.2038 172.125 53.375 172.125H12.75V165.875H53.375C54.2038 165.875 54.9987 165.546 55.5847 164.96C56.1708 164.374 56.5 163.579 56.5 162.75V160.031L67.25 169L56.5 177.969Z" fill="#7DC900"/>
<path d="M50.25 78.375C51.9076 78.375 53.4973 79.0335 54.6694 80.2056C55.8415 81.3777 56.5 82.9674 56.5 84.625H62.75C62.7396 81.8618 61.814 79.18 60.1178 76.9987C58.4216 74.8173 56.0504 73.2595 53.375 72.5688V65.875H47.125V72.5688C44.1824 73.3261 41.6174 75.1314 39.9114 77.6458C38.2054 80.1601 37.4757 83.2107 37.8593 86.2249C38.2429 89.239 39.7133 92.0096 41.9947 94.0165C44.2761 96.0235 47.2115 97.1288 50.25 97.125C51.4861 97.125 52.6945 97.4916 53.7223 98.1783C54.7501 98.8651 55.5512 99.8412 56.0242 100.983C56.4973 102.125 56.6211 103.382 56.3799 104.594C56.1387 105.807 55.5435 106.92 54.6694 107.794C53.7953 108.668 52.6817 109.264 51.4693 109.505C50.2569 109.746 49.0003 109.622 47.8582 109.149C46.7162 108.676 45.7401 107.875 45.0533 106.847C44.3666 105.82 44 104.611 44 103.375H37.75C37.7604 106.138 38.686 108.82 40.3822 111.001C42.0784 113.183 44.4495 114.74 47.125 115.431V122.125H53.375V115.431C56.3176 114.674 58.8826 112.869 60.5886 110.354C62.2946 107.84 63.0243 104.789 62.6407 101.775C62.2571 98.761 60.7867 95.9904 58.5053 93.9835C56.2239 91.9765 53.2885 90.8712 50.25 90.875C48.5924 90.875 47.0027 90.2165 45.8306 89.0444C44.6585 87.8723 44 86.2826 44 84.625C44 82.9674 44.6585 81.3777 45.8306 80.2056C47.0027 79.0335 48.5924 78.375 50.25 78.375Z" fill="#7DC900"/>
<path d="M23.7344 67.4844C16.7122 74.5222 12.7686 84.0581 12.7686 94C12.7686 103.942 16.7122 113.478 23.7344 120.516L28.1531 116.097C22.3012 110.232 19.0146 102.285 19.0146 94C19.0146 85.7149 22.3012 77.7681 28.1531 71.9031L23.7344 67.4844Z" fill="#CDCDCD"/>
<path d="M76.7657 67.4844L72.3469 71.9031C78.1989 77.7681 81.4854 85.7149 81.4854 94C81.4854 102.285 78.1989 110.232 72.3469 116.097L76.7657 120.516C83.7878 113.478 87.7315 103.942 87.7315 94C87.7315 84.0581 83.7878 74.5222 76.7657 67.4844Z" fill="#CDCDCD"/>
<path d="M157.731 75.5031L135.856 66.1281C135.467 65.9626 135.048 65.8773 134.625 65.8773C134.202 65.8773 133.783 65.9626 133.394 66.1281L111.519 75.5031C110.957 75.744 110.478 76.1446 110.141 76.655C109.805 77.1655 109.625 77.7635 109.625 78.375V89.3594C109.618 92.2332 110.18 95.08 111.28 97.7351C112.379 100.39 113.994 102.801 116.031 104.828L132.416 121.209C133.002 121.795 133.796 122.124 134.625 122.124C135.454 122.124 136.248 121.795 136.834 121.209L153.219 104.828C155.256 102.801 156.871 100.39 157.971 97.7351C159.07 95.08 159.632 92.2332 159.625 89.3594V78.375C159.625 77.7635 159.446 77.1655 159.109 76.655C158.772 76.1446 158.293 75.744 157.731 75.5031ZM153.375 89.3594C153.38 91.4121 152.978 93.4455 152.193 95.3421C151.408 97.2387 150.255 98.9609 148.8 100.409L134.625 114.581L120.453 100.409C118.998 98.9615 117.844 97.2395 117.058 95.3428C116.272 93.4461 115.87 91.4124 115.875 89.3594V80.4344L134.625 72.4L153.375 80.4344V89.3594Z" fill="#7DC900"/>
<path d="M130.584 88.6656L126.166 93.0844L132.416 99.3344C133.002 99.9203 133.796 100.249 134.625 100.249C135.454 100.249 136.248 99.9203 136.834 99.3344L149.334 86.8344L144.916 82.4156L134.625 92.7063L130.584 88.6656Z" fill="#7DC900"/>
</svg>
