<svg width="200" height="152" viewBox="0 0 200 152" fill="none" xmlns="http://www.w3.org/2000/svg">
<path d="M15.1843 34.2852H46.082C47.7 34.2852 49.0117 32.9738 49.0117 31.3555C49.0117 29.7371 47.7 28.4258 46.082 28.4258H15.1843C13.5664 28.4258 12.2546 29.7371 12.2546 31.3555C12.2546 32.9738 13.566 34.2852 15.1843 34.2852Z" fill="#7DC900"/>
<path d="M45.0226 48.3895H32.8171C31.1992 48.3895 29.8875 49.7008 29.8875 51.3192C29.8875 52.9375 31.1992 54.2488 32.8171 54.2488H45.0226C46.6406 54.2488 47.9523 52.9375 47.9523 51.3192C47.9523 49.7008 46.6406 48.3895 45.0226 48.3895Z" fill="#CDCDCD"/>
<path d="M2.92969 68.7059H32.8172C34.4352 68.7059 35.7469 67.3945 35.7469 65.7762C35.7469 64.1578 34.4352 62.8465 32.8172 62.8465H2.92969C1.31172 62.8465 0 64.1578 0 65.7762C0 67.3945 1.31172 68.7059 2.92969 68.7059Z" fill="#7DC900"/>
<path d="M49.0117 120.644C49.0117 119.026 47.7 117.714 46.082 117.714H15.1843C13.5664 117.714 12.2546 119.026 12.2546 120.644C12.2546 122.263 13.5664 123.574 15.1843 123.574H46.082C47.7 123.574 49.0117 122.263 49.0117 120.644Z" fill="#7DC900"/>
<path d="M45.0226 97.7512H32.8171C31.1992 97.7512 29.8875 99.0625 29.8875 100.681C29.8875 102.299 31.1992 103.611 32.8171 103.611H45.0226C46.6406 103.611 47.9523 102.299 47.9523 100.681C47.9523 99.0625 46.6406 97.7512 45.0226 97.7512Z" fill="#CDCDCD"/>
<path d="M35.7469 86.2239C35.7469 84.6055 34.4352 83.2942 32.8172 83.2942H2.92969C1.31172 83.2942 0 84.6055 0 86.2239C0 87.8422 1.31172 89.1536 2.92969 89.1536H32.8172C34.4352 89.1536 35.7469 87.8422 35.7469 86.2239Z" fill="#7DC900"/>
<path d="M124.816 40.7774C126.434 40.7774 127.746 39.466 127.746 37.8477V33.3758C127.746 31.7574 126.434 30.4461 124.816 30.4461C123.198 30.4461 121.886 31.7574 121.886 33.3758V37.8477C121.886 39.466 123.198 40.7774 124.816 40.7774Z" fill="#7DC900"/>
<path d="M157.027 43.7883C155.883 42.6445 154.028 42.6445 152.884 43.7883L149.722 46.9504C148.578 48.0949 148.578 49.9496 149.722 51.0938C150.867 52.2379 152.721 52.2375 153.865 51.0938L157.027 47.9317C158.171 46.7875 158.171 44.9328 157.027 43.7883Z" fill="#CDCDCD"/>
<path d="M162.968 73.0703C161.35 73.0703 160.039 74.3816 160.039 76C160.039 77.6184 161.35 78.9297 162.968 78.9297H167.44C169.058 78.9297 170.37 77.6184 170.37 76C170.37 74.3816 169.058 73.0703 167.44 73.0703H162.968Z" fill="#7DC900"/>
<path d="M153.865 100.906C152.721 99.7622 150.866 99.7622 149.722 100.906C148.578 102.05 148.578 103.905 149.722 105.049L152.884 108.211C154.029 109.356 155.883 109.355 157.027 108.211C158.171 107.067 158.171 105.212 157.027 104.068L153.865 100.906Z" fill="#CDCDCD"/>
<path d="M121.886 114.152V118.624C121.886 120.242 123.198 121.553 124.816 121.553C126.434 121.553 127.746 120.242 127.746 118.624V114.152C127.746 112.534 126.434 111.223 124.816 111.223C123.198 111.223 121.886 112.534 121.886 114.152Z" fill="#7DC900"/>
<path d="M95.7664 100.906L92.6043 104.068C91.4602 105.213 91.4602 107.067 92.6043 108.211C93.7489 109.356 95.6035 109.355 96.7473 108.211L99.9094 105.049C101.054 103.905 101.054 102.05 99.9094 100.906C98.7656 99.7622 96.9106 99.7622 95.7664 100.906Z" fill="#CDCDCD"/>
<path d="M82.1918 73.0703C80.5738 73.0703 79.2621 74.3816 79.2621 76C79.2621 77.6184 80.5738 78.9297 82.1918 78.9297H86.6636C88.2816 78.9297 89.5933 77.6184 89.5933 76C89.5933 74.3816 88.2816 73.0703 86.6636 73.0703H82.1918Z" fill="#7DC900"/>
<path d="M99.9098 46.9504L96.7477 43.7883C95.6035 42.6445 93.7484 42.6445 92.6047 43.7883C91.4605 44.9328 91.4605 46.7875 92.6047 47.9317L95.7668 51.0938C96.9113 52.2379 98.766 52.2375 99.9098 51.0938C101.054 49.9496 101.054 48.0949 99.9098 46.9504Z" fill="#CDCDCD"/>
<path d="M140.57 76C140.57 74.3817 139.259 73.0703 137.64 73.0703H127.746V51.3188C127.746 49.7004 126.434 48.3891 124.816 48.3891C123.198 48.3891 121.886 49.7004 121.886 51.3188V76C121.886 77.6184 123.198 78.9297 124.816 78.9297H137.64C139.258 78.9297 140.57 77.6184 140.57 76Z" fill="#7DC900"/>
<path d="M180.368 75.5164C181.983 75.4183 183.212 74.0297 183.114 72.4148C181.251 41.6715 155.643 17.5891 124.816 17.5891C92.6078 17.5891 66.4047 43.7922 66.4047 76.0004C66.4047 108.208 92.6078 134.411 124.816 134.411C153.671 134.411 178.292 113.27 182.575 84.7406C182.816 83.1406 181.713 81.6488 180.113 81.4086C178.517 81.1691 177.021 82.2703 176.781 83.8711C172.933 109.502 150.802 128.552 124.816 128.552C95.8387 128.552 72.264 104.978 72.264 76.0008C72.264 47.0238 95.8387 23.4488 124.816 23.4488C152.55 23.4488 175.589 45.1133 177.266 72.7703C177.363 74.3844 178.751 75.6101 180.368 75.5164Z" fill="#CDCDCD"/>
<path d="M124.816 0.81604C114.511 0.81604 104.414 2.95393 95.1211 6.95198H43.4301C41.8121 6.95198 40.5004 8.26331 40.5004 9.88166C40.5004 11.5 41.8121 12.8114 43.4301 12.8114H84.0992C78.6004 16.3504 73.5383 20.6192 69.075 25.5473C67.989 26.7461 68.0804 28.5989 69.2797 29.6852C70.4793 30.7715 72.3312 30.6797 73.4179 29.4805C86.5437 14.9875 105.278 6.67541 124.816 6.67541C163.041 6.67541 194.141 37.7742 194.141 76C194.141 114.225 163.042 145.325 124.816 145.325C86.5898 145.325 55.491 114.226 55.491 76C55.491 62.6141 59.3148 49.6219 66.5484 38.4274C67.4265 37.0684 67.0367 35.2551 65.6777 34.377C64.3187 33.4992 62.5054 33.8883 61.6269 35.2477C53.7793 47.3914 49.6316 61.4832 49.6316 76C49.6316 102.471 63.384 125.788 84.1179 139.189H43.4304C41.8125 139.189 40.5008 140.5 40.5008 142.118C40.5008 143.737 41.8125 145.048 43.4304 145.048H95.0808C104.206 148.993 114.259 151.184 124.816 151.184C166.272 151.184 200 117.457 200 76C200 34.5434 166.272 0.81604 124.816 0.81604Z" fill="#CDCDCD"/>
</svg>
